<svg width="17" height="17" viewBox="0 0 17 17" fill="none" xmlns="http://www.w3.org/2000/svg">
<path d="M8.4375 0.5C8.57344 0.5 8.70667 0.537474 8.82324 0.607422L16.0107 4.91992C16.1214 4.98703 16.2136 5.08071 16.2773 5.19336C16.3254 5.27825 16.3556 5.37167 16.3682 5.46777L16.375 5.56445V14.8975C16.3744 15.2618 16.2293 15.6115 15.9717 15.8691C15.7138 16.1269 15.3636 16.2721 14.999 16.2725H11.875C11.6762 16.2725 11.4854 16.1932 11.3447 16.0527C11.2042 15.9122 11.1251 15.7212 11.125 15.5225V12.085C11.125 11.7867 11.0067 11.5 10.7959 11.2891C10.5849 11.0781 10.2984 10.96 10 10.96H6.875C6.57663 10.96 6.29008 11.0781 6.0791 11.2891C5.86827 11.5 5.75 11.7867 5.75 12.085V15.5225C5.74987 15.7212 5.67081 15.9122 5.53027 16.0527C5.38964 16.1932 5.1988 16.2725 5 16.2725H1.87598C1.5114 16.2721 1.16118 16.1269 0.90332 15.8691C0.677639 15.6435 0.538335 15.3471 0.506836 15.0322L0.5 14.8965V5.56445C0.500281 5.43454 0.533674 5.30643 0.597656 5.19336C0.661397 5.08075 0.753618 4.987 0.864258 4.91992L8.05176 0.607422C8.1683 0.537475 8.30158 0.500028 8.4375 0.5Z" fill="white" stroke="#4B5563"/>
</svg>
