<svg width="20" height="20" viewBox="0 0 20 20" fill="none" xmlns="http://www.w3.org/2000/svg">
<path d="M18.4375 7.22729V16.561C18.437 17.0582 18.2393 17.5348 17.8878 17.8863C17.5363 18.2378 17.0596 18.4355 16.5625 18.436H13.4375C13.106 18.436 12.788 18.3043 12.5536 18.0699C12.3192 17.8355 12.1875 17.5176 12.1875 17.186V13.7485C12.1875 13.5828 12.1217 13.4238 12.0044 13.3066C11.8872 13.1894 11.7283 13.1235 11.5625 13.1235H8.4375C8.27174 13.1235 8.11277 13.1894 7.99556 13.3066C7.87835 13.4238 7.8125 13.5828 7.8125 13.7485V17.186C7.8125 17.5176 7.6808 17.8355 7.44638 18.0699C7.21196 18.3043 6.89402 18.436 6.5625 18.436H3.4375C2.94037 18.4355 2.46375 18.2378 2.11222 17.8863C1.7607 17.5348 1.563 17.0582 1.5625 16.561V7.22729C1.56297 7.01144 1.61906 6.79936 1.72536 6.6115C1.83166 6.42364 1.98458 6.26634 2.16937 6.15479L9.35687 1.84229C9.55118 1.72567 9.77354 1.66406 10.0002 1.66406C10.2268 1.66406 10.4491 1.72567 10.6434 1.84229L17.8309 6.15479C18.0157 6.26638 18.1685 6.42369 18.2748 6.61155C18.381 6.79941 18.4371 7.01147 18.4375 7.22729Z" fill="#0078D7"/>
</svg>
