<svg width="20" height="20" viewBox="0 0 20 20" fill="none" xmlns="http://www.w3.org/2000/svg">
<path d="M15.492 0.659019L18.671 3.83802C18.8799 4.04695 19.0457 4.29499 19.1587 4.56798C19.2718 4.84096 19.33 5.13354 19.33 5.42902C19.33 5.7245 19.2718 6.01708 19.1587 6.29006C19.0457 6.56305 18.8799 6.81109 18.671 7.02002L16.087 9.60402C16.6193 9.68466 17.1051 9.95352 17.4561 10.3618C17.8071 10.77 18.0001 11.2906 18 11.829V17.079C18 17.6758 17.7629 18.2481 17.341 18.67C16.919 19.092 16.3467 19.329 15.75 19.329H2.25C1.65326 19.329 1.08097 19.092 0.65901 18.67C0.237053 18.2481 0 17.6758 0 17.079V3.57902C0 2.98228 0.237053 2.40999 0.65901 1.98803C1.08097 1.56607 1.65326 1.32902 2.25 1.32902H7.5C8.0387 1.329 8.55953 1.52226 8.96783 1.87367C9.37613 2.22508 9.64479 2.71132 9.725 3.24402L12.31 0.659019C12.5189 0.450085 12.767 0.284348 13.04 0.171274C13.3129 0.0581988 13.6055 0 13.901 0C14.1965 0 14.4891 0.0581988 14.762 0.171274C15.035 0.284348 15.2831 0.450085 15.492 0.659019ZM1.5 17.079C1.5 17.493 1.836 17.829 2.25 17.829L8.249 17.828L8.25 11.078H1.5V17.079ZM9.749 17.828H15.75C15.9489 17.828 16.1397 17.749 16.2803 17.6083C16.421 17.4677 16.5 17.2769 16.5 17.078V11.829C16.5 11.6301 16.421 11.4393 16.2803 11.2987C16.1397 11.158 15.9489 11.079 15.75 11.079H9.749V17.828ZM7.5 2.82802H2.25C2.05109 2.82802 1.86032 2.90704 1.71967 3.04769C1.57902 3.18834 1.5 3.37911 1.5 3.57802V9.57802H8.25V3.57802C8.25 3.37911 8.17098 3.18834 8.03033 3.04769C7.88968 2.90704 7.69891 2.82802 7.5 2.82802ZM9.75 7.63802V9.57802H11.69L9.75 7.63802ZM13.37 1.72002L10.192 4.89802C10.1223 4.96767 10.067 5.05037 10.0293 5.1414C9.99158 5.23242 9.97216 5.32999 9.97216 5.42852C9.97216 5.52705 9.99158 5.62462 10.0293 5.71564C10.067 5.80667 10.1223 5.88937 10.192 5.95902L13.371 9.13802C13.5116 9.27847 13.7022 9.35736 13.901 9.35736C14.0997 9.35736 14.2904 9.27847 14.431 9.13802L17.611 5.95902C17.7514 5.81839 17.8303 5.62777 17.8303 5.42902C17.8303 5.23027 17.7514 5.03965 17.611 4.89902L14.431 1.71902C14.2904 1.57857 14.0997 1.49968 13.901 1.49968C13.7022 1.49968 13.5116 1.57857 13.371 1.71902L13.37 1.72002Z" fill="#212121"/>
</svg>
